<svg width="542" height="256" viewBox="0 0 542 256" fill="none" xmlns="http://www.w3.org/2000/svg">
<path d="M105 91C93.96 91 85 99.96 85 111C85 122.04 93.96 131 105 131C116.04 131 125 122.04 125 111C125 99.96 116.04 91 105 91ZM105 97C108.32 97 111 99.68 111 103C111 106.32 108.32 109 105 109C101.68 109 99 106.32 99 103C99 99.68 101.68 97 105 97ZM105 125.4C100 125.4 95.58 122.84 93 118.96C93.06 114.98 101 112.8 105 112.8C108.98 112.8 116.94 114.98 117 118.96C114.42 122.84 110 125.4 105 125.4Z" fill="white"/>
<path d="M68.6101 111.61V105.39H62.3899L58 101L53.6101 105.39H47.3899V111.61L43 116L47.3899 120.39V126.61H53.6101L58 131L62.3899 126.61H68.6101V120.39L73 116L68.6101 111.61ZM58 123.958C56.8196 123.958 55.6923 123.692 54.6844 123.228C57.4164 121.968 59.3263 119.21 59.3263 116C59.3263 112.79 57.4164 110.032 54.6844 108.772C55.6923 108.308 56.8196 108.042 58 108.042C62.3899 108.042 65.9576 111.61 65.9576 116C65.9576 120.39 62.3899 123.958 58 123.958Z" fill="white"/>
<path d="M267 131H142C139.25 131 137 128.75 137 126V96C137 93.25 139.25 91 142 91H267C269.75 91 272 93.25 272 96V126C272 128.75 269.75 131 267 131Z" fill="black"/>
<path d="M267 91.8C269.32 91.8 271.2 93.68 271.2 96V126C271.2 128.32 269.32 130.2 267 130.2H142C139.68 130.2 137.8 128.32 137.8 126V96C137.8 93.68 139.68 91.8 142 91.8H267ZM267 91H142C139.25 91 137 93.25 137 96V126C137 128.75 139.25 131 142 131H267C269.75 131 272 128.75 272 126V96C272 93.25 269.75 91 267 91Z" fill="#A6A6A6"/>
<path d="M184.42 101.24C184.42 102.08 184.17 102.75 183.67 103.24C183.11 103.83 182.37 104.13 181.47 104.13C180.6 104.13 179.87 103.83 179.26 103.23C178.65 102.63 178.35 101.88 178.35 101C178.35 100.11 178.65 99.37 179.26 98.7699C179.87 98.1699 180.6 97.8699 181.47 97.8699C181.9 97.8699 182.31 97.9499 182.7 98.1199C183.09 98.2899 183.4 98.5099 183.64 98.7899L183.11 99.32C182.71 98.8499 182.17 98.6099 181.47 98.6099C180.84 98.6099 180.29 98.8299 179.83 99.28C179.37 99.72 179.14 100.3 179.14 101.01C179.14 101.72 179.37 102.3 179.83 102.74C180.29 103.18 180.84 103.41 181.47 103.41C182.14 103.41 182.7 103.19 183.15 102.74C183.44 102.45 183.61 102.04 183.65 101.52H181.47V100.8H184.38C184.4 100.95 184.42 101.1 184.42 101.24Z" fill="white" stroke="white" stroke-width="0.2" stroke-miterlimit="10"/>
<path d="M189.03 98.7399H186.3V100.64H188.76V101.36H186.3V103.26H189.03V104H185.53V97.9999H189.03V98.7399Z" fill="white" stroke="white" stroke-width="0.2" stroke-miterlimit="10"/>
<path d="M192.28 104H191.51V98.7399H189.83V97.9999H193.95V98.7399H192.27V104H192.28Z" fill="white" stroke="white" stroke-width="0.2" stroke-miterlimit="10"/>
<path d="M196.94 104V97.9999H197.71V104H196.94Z" fill="white" stroke="white" stroke-width="0.2" stroke-miterlimit="10"/>
<path d="M201.13 104H200.36V98.7399H198.68V97.9999H202.8V98.7399H201.12V104H201.13Z" fill="white" stroke="white" stroke-width="0.2" stroke-miterlimit="10"/>
<path d="M210.61 103.22C210.02 103.83 209.29 104.13 208.41 104.13C207.53 104.13 206.8 103.83 206.21 103.22C205.62 102.61 205.33 101.87 205.33 101C205.33 100.13 205.62 99.38 206.21 98.7799C206.8 98.1699 207.53 97.8699 208.41 97.8699C209.28 97.8699 210.01 98.1699 210.61 98.7799C211.2 99.39 211.5 100.13 211.5 101C211.49 101.88 211.2 102.62 210.61 103.22ZM206.78 102.72C207.22 103.17 207.77 103.39 208.41 103.39C209.05 103.39 209.6 103.17 210.04 102.72C210.48 102.27 210.71 101.7 210.71 101C210.71 100.3 210.49 99.73 210.04 99.28C209.6 98.8299 209.05 98.6099 208.41 98.6099C207.77 98.6099 207.22 98.8299 206.78 99.28C206.34 99.73 206.11 100.3 206.11 101C206.11 101.7 206.34 102.27 206.78 102.72Z" fill="white" stroke="white" stroke-width="0.2" stroke-miterlimit="10"/>
<path d="M212.58 104V97.9999H213.52L216.44 102.67H216.47L216.44 101.51V97.9999H217.21V104H216.41L213.36 99.1099H213.33L213.36 100.27V104H212.58Z" fill="white" stroke="white" stroke-width="0.2" stroke-miterlimit="10"/>
<path d="M205.14 112.75C202.79 112.75 200.87 114.54 200.87 117C200.87 119.45 202.79 121.25 205.14 121.25C207.49 121.25 209.41 119.45 209.41 117C209.41 114.54 207.49 112.75 205.14 112.75ZM205.14 119.58C203.85 119.58 202.74 118.52 202.74 117C202.74 115.47 203.85 114.42 205.14 114.42C206.43 114.42 207.54 115.47 207.54 117C207.54 118.52 206.42 119.58 205.14 119.58ZM195.82 112.75C193.47 112.75 191.55 114.54 191.55 117C191.55 119.45 193.47 121.25 195.82 121.25C198.17 121.25 200.09 119.45 200.09 117C200.09 114.54 198.17 112.75 195.82 112.75ZM195.82 119.58C194.53 119.58 193.42 118.52 193.42 117C193.42 115.47 194.53 114.42 195.82 114.42C197.11 114.42 198.22 115.47 198.22 117C198.22 118.52 197.11 119.58 195.82 119.58ZM184.74 114.06V115.86H189.06C188.93 116.87 188.59 117.62 188.08 118.13C187.45 118.76 186.47 119.45 184.75 119.45C182.09 119.45 180.01 117.31 180.01 114.65C180.01 111.99 182.09 109.85 184.75 109.85C186.18 109.85 187.23 110.41 188 111.14L189.27 109.87C188.19 108.84 186.76 108.05 184.74 108.05C181.1 108.05 178.04 111.01 178.04 114.66C178.04 118.3 181.1 121.27 184.74 121.27C186.71 121.27 188.19 120.63 189.35 119.42C190.54 118.23 190.91 116.55 190.91 115.2C190.91 114.78 190.88 114.39 190.81 114.07H184.74V114.06ZM230.05 115.46C229.7 114.51 228.62 112.75 226.41 112.75C224.22 112.75 222.4 114.47 222.4 117C222.4 119.38 224.2 121.25 226.62 121.25C228.57 121.25 229.7 120.06 230.16 119.37L228.71 118.4C228.23 119.11 227.57 119.58 226.62 119.58C225.67 119.58 224.99 119.14 224.56 118.29L230.25 115.94L230.05 115.46ZM224.25 116.88C224.2 115.24 225.52 114.4 226.47 114.4C227.21 114.4 227.84 114.77 228.05 115.3L224.25 116.88ZM219.63 121H221.5V108.5H219.63V121ZM216.57 113.7H216.5C216.08 113.2 215.28 112.75 214.26 112.75C212.13 112.75 210.18 114.62 210.18 117.02C210.18 119.4 212.13 121.26 214.26 121.26C215.27 121.26 216.08 120.81 216.5 120.29H216.56V120.9C216.56 122.53 215.69 123.4 214.29 123.4C213.15 123.4 212.44 122.58 212.15 121.89L210.52 122.57C210.99 123.7 212.23 125.08 214.29 125.08C216.48 125.08 218.33 123.79 218.33 120.65V113.01H216.56V113.7H216.57ZM214.42 119.58C213.13 119.58 212.05 118.5 212.05 117.02C212.05 115.52 213.13 114.43 214.42 114.43C215.69 114.43 216.69 115.53 216.69 117.02C216.7 118.5 215.7 119.58 214.42 119.58ZM238.81 108.5H234.34V121H236.21V116.26H238.82C240.89 116.26 242.92 114.76 242.92 112.38C242.92 110 240.87 108.5 238.81 108.5ZM238.85 114.52H236.2V110.23H238.85C240.25 110.23 241.04 111.39 241.04 112.37C241.04 113.35 240.25 114.52 238.85 114.52ZM250.39 112.73C249.04 112.73 247.64 113.33 247.06 114.64L248.72 115.33C249.07 114.64 249.73 114.41 250.42 114.41C251.38 114.41 252.37 114.99 252.38 116.02V116.15C252.04 115.96 251.32 115.67 250.43 115.67C248.64 115.67 246.83 116.65 246.83 118.48C246.83 120.15 248.29 121.23 249.93 121.23C251.18 121.23 251.88 120.67 252.31 120.01H252.37V120.98H254.17V116.19C254.18 113.97 252.52 112.73 250.39 112.73ZM250.16 119.58C249.55 119.58 248.7 119.27 248.7 118.52C248.7 117.56 249.76 117.19 250.68 117.19C251.5 117.19 251.89 117.37 252.38 117.61C252.24 118.76 251.24 119.58 250.16 119.58ZM260.74 113L258.6 118.42H258.54L256.32 113H254.31L257.64 120.58L255.74 124.79H257.69L262.82 113H260.74ZM243.94 121H245.81V108.5H243.94V121Z" fill="white"/>
<path d="M147.44 98.54C147.15 98.85 146.98 99.33 146.98 99.94V122.06C146.98 122.68 147.15 123.16 147.44 123.46L147.51 123.53L159.9 111.15V111V110.85L147.51 98.47L147.44 98.54Z" fill="url(#paint0_linear_4_38)"/>
<path d="M164.03 115.28L159.9 111.15V111V110.85L164.03 106.72L164.12 106.77L169.01 109.55C170.41 110.34 170.41 111.64 169.01 112.44L164.12 115.22L164.03 115.28Z" fill="url(#paint1_linear_4_38)"/>
<path d="M164.12 115.22L159.9 111L147.44 123.46C147.9 123.95 148.66 124.01 149.52 123.52L164.12 115.22Z" fill="url(#paint2_linear_4_38)"/>
<path d="M164.12 106.78L149.51 98.48C148.65 97.99 147.89 98.05 147.43 98.54L159.9 111L164.12 106.78Z" fill="url(#paint3_linear_4_38)"/>
<path opacity="0.2" d="M164.03 115.13L149.51 123.38C148.7 123.84 147.97 123.81 147.51 123.39L147.44 123.46L147.51 123.53C147.98 123.95 148.7 123.98 149.51 123.52L164.12 115.22L164.03 115.13Z" fill="black"/>
<path opacity="0.12" d="M147.44 123.32C147.15 123.01 146.98 122.53 146.98 121.92V122.07C146.98 122.69 147.15 123.17 147.44 123.47L147.51 123.4L147.44 123.32Z" fill="black"/>
<path opacity="0.12" d="M169.01 112.3L164.02 115.13L164.11 115.22L169 112.44C169.7 112.04 170.05 111.52 170.05 111C170 111.47 169.65 111.94 169.01 112.3Z" fill="black"/>
<path opacity="0.25" d="M149.51 98.6199L169.01 109.7C169.64 110.06 170 110.52 170.06 111C170.06 110.48 169.71 109.95 169.01 109.56L149.51 98.4799C148.11 97.6899 146.97 98.3499 146.97 99.9499V100.1C146.97 98.4899 148.12 97.8299 149.51 98.6199Z" fill="white"/>
<path d="M394.135 93.0001H293.535C293.168 93.0001 292.806 93.0001 292.44 93.0021C292.134 93.0041 291.83 93.0099 291.521 93.0148C290.85 93.0227 290.18 93.0818 289.517 93.1915C288.856 93.3037 288.215 93.515 287.616 93.8185C287.018 94.1246 286.472 94.5223 285.998 94.9972C285.52 95.4708 285.122 96.0181 284.819 96.6183C284.515 97.2172 284.305 97.8591 284.194 98.5216C284.083 99.1833 284.023 99.8526 284.015 100.524C284.006 100.83 284.005 101.138 284 101.444V124.559C284.005 124.869 284.006 125.17 284.015 125.481C284.023 126.151 284.083 126.821 284.194 127.482C284.304 128.145 284.515 128.788 284.819 129.387C285.122 129.985 285.52 130.53 285.998 131.001C286.471 131.478 287.017 131.876 287.616 132.18C288.215 132.484 288.855 132.697 289.517 132.811C290.18 132.919 290.85 132.978 291.521 132.987C291.83 132.994 292.134 132.998 292.44 132.998C292.806 133 293.168 133 293.535 133H394.135C394.494 133 394.859 133 395.219 132.998C395.523 132.998 395.836 132.994 396.141 132.987C396.811 132.979 397.479 132.92 398.141 132.811C398.804 132.696 399.448 132.483 400.049 132.18C400.647 131.876 401.193 131.478 401.666 131.001C402.142 130.528 402.541 129.983 402.848 129.387C403.15 128.787 403.358 128.145 403.467 127.482C403.578 126.821 403.64 126.152 403.652 125.481C403.656 125.17 403.656 124.869 403.656 124.559C403.664 124.195 403.664 123.834 403.664 123.465V102.536C403.664 102.17 403.664 101.807 403.656 101.444C403.656 101.138 403.656 100.83 403.652 100.524C403.64 99.8525 403.578 99.1833 403.467 98.5216C403.358 97.8594 403.149 97.2176 402.848 96.6182C402.23 95.4153 401.252 94.4362 400.049 93.8184C399.448 93.5157 398.804 93.3044 398.141 93.1914C397.48 93.0812 396.811 93.0221 396.141 93.0147C395.836 93.0098 395.523 93.0039 395.219 93.002C394.859 93 394.494 93 394.135 93V93.0001Z" fill="#A6A6A6"/>
<path d="M292.445 132.125C292.14 132.125 291.843 132.121 291.541 132.114C290.914 132.106 290.29 132.052 289.671 131.951C289.095 131.852 288.537 131.667 288.015 131.403C287.497 131.142 287.026 130.798 286.618 130.387C286.204 129.98 285.859 129.508 285.597 128.99C285.333 128.469 285.149 127.91 285.054 127.333C284.951 126.713 284.896 126.086 284.888 125.458C284.881 125.247 284.873 124.545 284.873 124.545V101.444C284.873 101.444 284.882 100.753 284.888 100.55C284.895 99.9226 284.951 99.2968 285.053 98.6778C285.149 98.0994 285.332 97.5389 285.597 97.0157C285.857 96.4981 286.2 96.026 286.612 95.6178C287.023 95.2057 287.496 94.8607 288.014 94.5953C288.535 94.3322 289.092 94.1489 289.667 94.0514C290.288 93.95 290.915 93.8951 291.543 93.8873L292.445 93.8751H395.214L396.127 93.8878C396.75 93.8952 397.371 93.9496 397.985 94.0504C398.566 94.1491 399.13 94.3337 399.656 94.5983C400.694 95.1331 401.539 95.9793 402.071 97.0182C402.332 97.5377 402.512 98.0936 402.606 98.6671C402.71 99.2911 402.768 99.9218 402.78 100.554C402.783 100.838 402.783 101.142 402.783 101.444C402.791 101.819 402.791 102.176 402.791 102.536V123.465C402.791 123.828 402.791 124.183 402.783 124.54C402.783 124.865 402.783 125.163 402.779 125.47C402.768 126.091 402.71 126.71 402.608 127.323C402.515 127.904 402.333 128.468 402.068 128.993C401.805 129.506 401.462 129.973 401.053 130.379C400.644 130.793 400.172 131.138 399.653 131.401C399.128 131.667 398.566 131.853 397.985 131.951C397.367 132.052 396.742 132.107 396.116 132.114C395.823 132.121 395.517 132.125 395.219 132.125L394.135 132.127L292.445 132.125Z" fill="black"/>
<path d="M308.769 113.301C308.78 112.466 309.001 111.648 309.413 110.922C309.825 110.196 310.414 109.586 311.125 109.149C310.674 108.503 310.078 107.972 309.385 107.598C308.692 107.223 307.921 107.016 307.134 106.991C305.455 106.815 303.827 107.996 302.971 107.996C302.099 107.996 300.782 107.008 299.363 107.038C298.445 107.067 297.551 107.334 296.767 107.812C295.983 108.29 295.336 108.963 294.89 109.765C292.956 113.114 294.399 118.035 296.251 120.742C297.178 122.067 298.261 123.547 299.679 123.495C301.066 123.437 301.584 122.61 303.258 122.61C304.917 122.61 305.403 123.495 306.849 123.462C308.338 123.437 309.275 122.13 310.17 120.792C310.836 119.848 311.348 118.804 311.688 117.7C310.823 117.334 310.085 116.722 309.566 115.94C309.047 115.157 308.77 114.24 308.769 113.301Z" fill="white"/>
<path d="M306.037 105.211C306.849 104.237 307.249 102.985 307.152 101.72C305.912 101.851 304.767 102.443 303.944 103.38C303.542 103.838 303.234 104.37 303.038 104.947C302.842 105.524 302.761 106.133 302.8 106.741C303.421 106.748 304.034 106.613 304.595 106.348C305.155 106.083 305.649 105.694 306.037 105.211Z" fill="white"/>
<path d="M326.302 120.14H321.569L320.432 123.496H318.427L322.911 111.078H324.994L329.477 123.496H327.438L326.302 120.14ZM322.059 118.591H325.811L323.961 113.144H323.91L322.059 118.591Z" fill="white"/>
<path d="M339.16 118.97C339.16 121.783 337.654 123.591 335.381 123.591C334.806 123.621 334.233 123.489 333.729 123.208C333.226 122.928 332.811 122.512 332.533 122.007H332.49V126.491H330.631V114.443H332.43V115.948H332.464C332.755 115.446 333.177 115.032 333.685 114.75C334.192 114.468 334.767 114.329 335.347 114.348C337.645 114.348 339.16 116.164 339.16 118.97ZM337.25 118.97C337.25 117.137 336.302 115.932 334.857 115.932C333.437 115.932 332.482 117.162 332.482 118.97C332.482 120.794 333.437 122.016 334.857 122.016C336.302 122.016 337.25 120.82 337.25 118.97Z" fill="white"/>
<path d="M349.125 118.97C349.125 121.783 347.619 123.591 345.346 123.591C344.771 123.621 344.198 123.489 343.694 123.208C343.19 122.928 342.776 122.512 342.498 122.007H342.455V126.491H340.596V114.443H342.395V115.948H342.429C342.72 115.446 343.142 115.032 343.649 114.75C344.157 114.468 344.732 114.329 345.312 114.348C347.61 114.348 349.125 116.164 349.125 118.97ZM347.214 118.97C347.214 117.137 346.267 115.932 344.822 115.932C343.402 115.932 342.447 117.162 342.447 118.97C342.447 120.794 343.402 122.016 344.822 122.016C346.267 122.016 347.214 120.82 347.214 118.97H347.214Z" fill="white"/>
<path d="M355.71 120.036C355.848 121.268 357.044 122.076 358.679 122.076C360.246 122.076 361.373 121.268 361.373 120.157C361.373 119.193 360.693 118.616 359.083 118.221L357.474 117.833C355.194 117.282 354.135 116.216 354.135 114.485C354.135 112.343 356.002 110.871 358.654 110.871C361.278 110.871 363.077 112.343 363.137 114.485H361.261C361.149 113.246 360.124 112.498 358.627 112.498C357.13 112.498 356.106 113.255 356.106 114.357C356.106 115.234 356.76 115.751 358.361 116.146L359.729 116.482C362.277 117.085 363.335 118.108 363.335 119.925C363.335 122.248 361.485 123.703 358.541 123.703C355.788 123.703 353.928 122.282 353.808 120.036L355.71 120.036Z" fill="white"/>
<path d="M367.346 112.3V114.443H369.068V115.914H367.346V120.905C367.346 121.681 367.691 122.042 368.448 122.042C368.652 122.039 368.856 122.024 369.059 121.999V123.462C368.719 123.526 368.373 123.554 368.027 123.548C366.194 123.548 365.479 122.86 365.479 121.104V115.914H364.163V114.443H365.479V112.3H367.346Z" fill="white"/>
<path d="M370.065 118.97C370.065 116.121 371.743 114.331 374.359 114.331C376.984 114.331 378.654 116.121 378.654 118.97C378.654 121.826 376.993 123.609 374.359 123.609C371.726 123.609 370.065 121.826 370.065 118.97ZM376.76 118.97C376.76 117.016 375.865 115.862 374.359 115.862C372.853 115.862 371.959 117.025 371.959 118.97C371.959 120.932 372.853 122.076 374.359 122.076C375.865 122.076 376.76 120.932 376.76 118.97H376.76Z" fill="white"/>
<path d="M380.186 114.443H381.959V115.984H382.002C382.121 115.502 382.403 115.077 382.8 114.779C383.197 114.481 383.684 114.329 384.179 114.348C384.393 114.347 384.607 114.37 384.816 114.417V116.155C384.546 116.073 384.264 116.035 383.981 116.043C383.711 116.032 383.442 116.08 383.192 116.183C382.942 116.286 382.718 116.441 382.534 116.639C382.35 116.837 382.211 117.072 382.126 117.329C382.042 117.586 382.014 117.858 382.044 118.126V123.496H380.186L380.186 114.443Z" fill="white"/>
<path d="M393.384 120.837C393.134 122.481 391.534 123.608 389.486 123.608C386.852 123.608 385.217 121.844 385.217 119.013C385.217 116.173 386.861 114.331 389.408 114.331C391.913 114.331 393.488 116.052 393.488 118.797V119.434H387.093V119.546C387.064 119.879 387.105 120.215 387.216 120.531C387.326 120.847 387.502 121.135 387.732 121.378C387.963 121.62 388.242 121.811 388.552 121.937C388.861 122.064 389.195 122.123 389.529 122.11C389.968 122.152 390.409 122.05 390.785 121.82C391.162 121.591 391.455 121.246 391.62 120.837L393.384 120.837ZM387.102 118.135H391.628C391.645 117.835 391.6 117.536 391.495 117.254C391.39 116.973 391.229 116.717 391.02 116.501C390.812 116.285 390.561 116.115 390.283 116C390.006 115.886 389.708 115.831 389.408 115.837C389.105 115.835 388.805 115.893 388.525 116.008C388.245 116.123 387.99 116.292 387.776 116.506C387.562 116.719 387.392 116.973 387.276 117.253C387.16 117.532 387.101 117.832 387.102 118.135V118.135Z" fill="white"/>
<path d="M321.826 101.731C322.216 101.703 322.607 101.762 322.971 101.903C323.335 102.045 323.663 102.265 323.932 102.549C324.2 102.833 324.403 103.172 324.524 103.544C324.645 103.915 324.683 104.308 324.634 104.696C324.634 106.602 323.604 107.698 321.826 107.698H319.671V101.731H321.826ZM320.598 106.854H321.723C322.001 106.871 322.28 106.825 322.538 106.72C322.797 106.616 323.029 106.455 323.217 106.249C323.406 106.044 323.546 105.799 323.628 105.532C323.71 105.266 323.731 104.984 323.69 104.708C323.728 104.433 323.705 104.154 323.621 103.889C323.538 103.624 323.398 103.381 323.21 103.177C323.022 102.973 322.791 102.814 322.534 102.709C322.277 102.605 322 102.559 321.723 102.574H320.598V106.854Z" fill="white"/>
<path d="M325.681 105.444C325.652 105.148 325.686 104.85 325.78 104.568C325.874 104.286 326.026 104.026 326.226 103.806C326.426 103.586 326.669 103.411 326.941 103.29C327.213 103.17 327.507 103.108 327.804 103.108C328.101 103.108 328.395 103.17 328.667 103.29C328.939 103.411 329.183 103.586 329.383 103.806C329.583 104.026 329.735 104.286 329.828 104.568C329.922 104.85 329.956 105.148 329.928 105.444C329.957 105.741 329.923 106.04 329.83 106.322C329.736 106.605 329.584 106.864 329.384 107.085C329.184 107.305 328.94 107.481 328.668 107.602C328.396 107.722 328.102 107.785 327.804 107.785C327.507 107.785 327.212 107.722 326.94 107.602C326.668 107.481 326.424 107.305 326.224 107.085C326.024 106.864 325.872 106.605 325.779 106.322C325.685 106.04 325.652 105.741 325.681 105.444ZM329.014 105.444C329.014 104.468 328.575 103.898 327.806 103.898C327.033 103.898 326.599 104.468 326.599 105.444C326.599 106.428 327.033 106.995 327.806 106.995C328.575 106.995 329.014 106.424 329.014 105.444H329.014Z" fill="white"/>
<path d="M335.573 107.698H334.651L333.721 104.381H333.65L332.724 107.698H331.811L330.569 103.195H331.471L332.277 106.631H332.344L333.27 103.195H334.122L335.048 106.631H335.118L335.921 103.195H336.81L335.573 107.698Z" fill="white"/>
<path d="M337.854 103.195H338.709V103.91H338.775C338.888 103.653 339.078 103.438 339.319 103.294C339.56 103.15 339.84 103.085 340.119 103.108C340.338 103.091 340.558 103.125 340.763 103.205C340.967 103.285 341.151 103.41 341.301 103.571C341.451 103.732 341.562 103.924 341.628 104.134C341.693 104.344 341.71 104.565 341.678 104.783V107.698H340.789V105.006C340.789 104.282 340.475 103.922 339.817 103.922C339.669 103.915 339.52 103.941 339.382 103.997C339.244 104.052 339.12 104.138 339.018 104.246C338.915 104.354 338.838 104.483 338.79 104.625C338.743 104.766 338.726 104.915 338.742 105.064V107.698H337.854L337.854 103.195Z" fill="white"/>
<path d="M343.094 101.437H343.982V107.698H343.094V101.437Z" fill="white"/>
<path d="M345.218 105.444C345.189 105.148 345.223 104.85 345.317 104.568C345.411 104.286 345.563 104.026 345.763 103.806C345.963 103.586 346.207 103.41 346.478 103.29C346.75 103.17 347.044 103.108 347.342 103.108C347.639 103.108 347.933 103.17 348.205 103.29C348.477 103.41 348.72 103.586 348.92 103.806C349.12 104.026 349.272 104.286 349.366 104.568C349.46 104.85 349.494 105.148 349.465 105.444C349.494 105.741 349.461 106.04 349.367 106.322C349.273 106.605 349.122 106.864 348.922 107.085C348.722 107.305 348.478 107.481 348.206 107.602C347.934 107.722 347.639 107.785 347.342 107.785C347.044 107.785 346.75 107.722 346.477 107.602C346.205 107.481 345.961 107.305 345.761 107.085C345.561 106.864 345.41 106.605 345.316 106.322C345.222 106.04 345.189 105.741 345.218 105.444ZM348.551 105.444C348.551 104.468 348.112 103.897 347.343 103.897C346.57 103.897 346.136 104.468 346.136 105.444C346.136 106.428 346.57 106.995 347.343 106.995C348.112 106.995 348.551 106.424 348.551 105.444H348.551Z" fill="white"/>
<path d="M350.401 106.424C350.401 105.614 351.004 105.146 352.076 105.08L353.295 105.01V104.621C353.295 104.145 352.981 103.877 352.374 103.877C351.877 103.877 351.534 104.059 351.435 104.377H350.575C350.666 103.604 351.393 103.108 352.415 103.108C353.543 103.108 354.18 103.67 354.18 104.621V107.698H353.325V107.065H353.254C353.112 107.292 352.911 107.477 352.674 107.601C352.436 107.725 352.17 107.784 351.902 107.772C351.713 107.792 351.522 107.771 351.341 107.713C351.16 107.654 350.994 107.558 350.852 107.431C350.711 107.304 350.598 107.149 350.52 106.976C350.442 106.802 350.402 106.614 350.401 106.424ZM353.295 106.039V105.663L352.196 105.733C351.576 105.775 351.294 105.986 351.294 106.383C351.294 106.788 351.646 107.024 352.129 107.024C352.271 107.038 352.414 107.024 352.55 106.982C352.686 106.94 352.812 106.871 352.921 106.779C353.03 106.687 353.119 106.574 353.183 106.447C353.248 106.32 353.286 106.182 353.295 106.039Z" fill="white"/>
<path d="M355.348 105.444C355.348 104.022 356.08 103.12 357.217 103.12C357.499 103.107 357.778 103.175 358.023 103.315C358.267 103.454 358.467 103.661 358.598 103.91H358.665V101.437H359.553V107.698H358.702V106.986H358.631C358.49 107.234 358.283 107.438 358.034 107.576C357.785 107.715 357.502 107.783 357.217 107.772C356.072 107.772 355.348 106.871 355.348 105.444ZM356.266 105.444C356.266 106.4 356.716 106.974 357.469 106.974C358.218 106.974 358.681 106.391 358.681 105.448C358.681 104.51 358.213 103.919 357.469 103.919C356.721 103.919 356.266 104.497 356.266 105.444H356.266Z" fill="white"/>
<path d="M363.23 105.444C363.202 105.148 363.236 104.85 363.329 104.568C363.423 104.286 363.575 104.026 363.775 103.806C363.975 103.586 364.219 103.411 364.49 103.29C364.762 103.17 365.056 103.108 365.354 103.108C365.651 103.108 365.945 103.17 366.217 103.29C366.489 103.411 366.732 103.586 366.932 103.806C367.132 104.026 367.284 104.286 367.378 104.568C367.472 104.85 367.505 105.148 367.477 105.444C367.506 105.741 367.472 106.04 367.379 106.322C367.285 106.605 367.134 106.864 366.934 107.085C366.734 107.305 366.49 107.481 366.218 107.602C365.945 107.722 365.651 107.785 365.354 107.785C365.056 107.785 364.762 107.722 364.489 107.602C364.217 107.481 363.973 107.305 363.773 107.085C363.573 106.864 363.422 106.605 363.328 106.322C363.235 106.04 363.201 105.741 363.23 105.444ZM366.563 105.444C366.563 104.468 366.125 103.898 365.355 103.898C364.583 103.898 364.148 104.468 364.148 105.444C364.148 106.428 364.583 106.995 365.355 106.995C366.125 106.995 366.563 106.424 366.563 105.444Z" fill="white"/>
<path d="M368.669 103.195H369.525V103.91H369.591C369.704 103.653 369.894 103.438 370.135 103.294C370.376 103.15 370.655 103.085 370.935 103.108C371.154 103.091 371.374 103.125 371.579 103.205C371.783 103.285 371.967 103.41 372.117 103.571C372.267 103.732 372.378 103.924 372.443 104.134C372.509 104.344 372.526 104.565 372.494 104.783V107.698H371.605V105.006C371.605 104.282 371.291 103.922 370.633 103.922C370.485 103.915 370.336 103.941 370.198 103.997C370.06 104.052 369.936 104.138 369.833 104.246C369.731 104.354 369.654 104.483 369.606 104.625C369.559 104.766 369.542 104.915 369.558 105.064V107.698H368.669V103.195Z" fill="white"/>
<path d="M377.515 102.074V103.215H378.491V103.964H377.515V106.279C377.515 106.751 377.709 106.958 378.152 106.958C378.265 106.957 378.378 106.95 378.491 106.937V107.677C378.331 107.706 378.169 107.721 378.007 107.723C377.019 107.723 376.625 107.375 376.625 106.507V103.964H375.911V103.215H376.625V102.074H377.515Z" fill="white"/>
<path d="M379.705 101.437H380.585V103.919H380.656C380.774 103.659 380.969 103.443 381.215 103.298C381.461 103.154 381.745 103.089 382.029 103.112C382.247 103.1 382.465 103.136 382.667 103.218C382.869 103.3 383.051 103.426 383.199 103.587C383.347 103.747 383.458 103.938 383.524 104.146C383.59 104.354 383.609 104.574 383.58 104.791V107.698H382.69V105.01C382.69 104.291 382.355 103.926 381.727 103.926C381.574 103.914 381.421 103.935 381.277 103.988C381.133 104.041 381.003 104.125 380.895 104.233C380.787 104.342 380.704 104.473 380.652 104.617C380.6 104.762 380.58 104.915 380.593 105.068V107.698H379.705L379.705 101.437Z" fill="white"/>
<path d="M388.761 106.482C388.641 106.893 388.379 107.249 388.022 107.488C387.666 107.726 387.236 107.831 386.81 107.785C386.513 107.793 386.219 107.736 385.946 107.618C385.674 107.501 385.43 107.325 385.232 107.104C385.034 106.883 384.887 106.621 384.8 106.338C384.713 106.054 384.689 105.754 384.73 105.46C384.691 105.166 384.715 104.866 384.801 104.581C384.888 104.296 385.034 104.033 385.231 103.81C385.428 103.587 385.671 103.409 385.942 103.288C386.214 103.167 386.509 103.105 386.806 103.108C388.059 103.108 388.815 103.964 388.815 105.378V105.688H385.635V105.738C385.621 105.903 385.642 106.069 385.696 106.226C385.75 106.383 385.837 106.527 385.95 106.648C386.062 106.77 386.2 106.866 386.352 106.931C386.504 106.997 386.669 107.03 386.834 107.028C387.047 107.053 387.262 107.015 387.453 106.918C387.644 106.821 387.801 106.669 387.906 106.482L388.761 106.482ZM385.635 105.031H387.91C387.921 104.88 387.9 104.728 387.849 104.585C387.798 104.442 387.718 104.312 387.614 104.202C387.509 104.092 387.383 104.005 387.243 103.947C387.103 103.889 386.953 103.861 386.801 103.864C386.648 103.862 386.495 103.891 386.353 103.949C386.21 104.007 386.081 104.093 385.972 104.202C385.864 104.31 385.778 104.44 385.72 104.582C385.662 104.725 385.633 104.877 385.635 105.031H385.635Z" fill="white"/>
<defs>
<linearGradient id="paint0_linear_4_38" x1="158.8" y1="99.7097" x2="142.017" y2="116.492" gradientUnits="userSpaceOnUse">
<stop stop-color="#00A0FF"/>
<stop offset="0.00657445" stop-color="#00A1FF"/>
<stop offset="0.2601" stop-color="#00BEFF"/>
<stop offset="0.5122" stop-color="#00D2FF"/>
<stop offset="0.7604" stop-color="#00DFFF"/>
<stop offset="1" stop-color="#00E3FF"/>
</linearGradient>
<linearGradient id="paint1_linear_4_38" x1="170.834" y1="111.001" x2="146.638" y2="111.001" gradientUnits="userSpaceOnUse">
<stop stop-color="#FFE000"/>
<stop offset="0.4087" stop-color="#FFBD00"/>
<stop offset="0.7754" stop-color="#FFA500"/>
<stop offset="1" stop-color="#FF9C00"/>
</linearGradient>
<linearGradient id="paint2_linear_4_38" x1="161.827" y1="113.296" x2="139.069" y2="136.054" gradientUnits="userSpaceOnUse">
<stop stop-color="#FF3A44"/>
<stop offset="1" stop-color="#C31162"/>
</linearGradient>
<linearGradient id="paint3_linear_4_38" x1="144.297" y1="91.1762" x2="154.46" y2="101.339" gradientUnits="userSpaceOnUse">
<stop stop-color="#32A071"/>
<stop offset="0.0685" stop-color="#2DA771"/>
<stop offset="0.4762" stop-color="#15CF74"/>
<stop offset="0.8009" stop-color="#06E775"/>
<stop offset="1" stop-color="#00F076"/>
</linearGradient>
</defs>
</svg>
